<svg id="ASUS_logo" data-name="ASUS logo" xmlns="http://www.w3.org/2000/svg" viewBox="0 0 1067.78 220.05"><defs><style>.cls-1{fill:#fff;}</style></defs><g id="asus_logo-2" data-name="asus logo"><path class="cls-1" d="M985.91,88,793.15,76.58c0,29.55,19.39,49.29,52.41,52l137.2,10.58c10.57.86,17.23,3.47,17.23,12.25,0,8.34-7.49,11.5-23,11.5H790v57.18H981c60.23,0,86.77-21,86.77-69.12,0-43.11-23.79-59.31-81.87-62.89"/><path class="cls-1" d="M728,137.78c0,20.22-10.16,26.43-45.34,26.43H634.22c-28.93,0-41.32-8.41-41.32-26.43V66.93l-61.58-4.39v80.53H530c-3.5-23.28-12.39-50.63-70.82-54.58L266.26,75.72c0,29.45,21.18,47.13,54.17,50.6L454.71,140c10.53.82,18.56,4,18.56,12.8,0,9.68-8,10.54-20.35,10.54H264.13v-88l-61.71-3.94V220.05h251c55.88,0,73.93-29,76.61-53.16h1.34c7,38.2,40.36,53.16,97.21,53.16H691.1c66.35,0,97.65-20.24,97.65-67.75V76.58L728,73.08Z"/><polygon class="cls-1" points="0 220.06 74.83 220.06 168.57 68.62 101.67 62.06 0 220.06"/><path class="cls-1" d="M854.76,0c-43.56,0-63,27.32-66,53.31V0H728V56.36H1061.6V0Z"/><rect class="cls-1" x="531.32" width="61.58" height="56.36"/><path class="cls-1" d="M520.3,0h-188C288.78,0,269.42,27.32,265,53.31V0H160.58C146.26,0,139.09,4.39,132,14.55L103.46,56.36H520.3Z"/></g></svg>