<svg width="44" height="44" viewBox="0 0 44 44" fill="none" xmlns="http://www.w3.org/2000/svg">
<rect width="44" height="44" rx="22" fill="#006CE1"/>
<path d="M19.4526 21.076C20.068 20.9763 20.4859 20.398 20.386 19.7842C20.2861 19.1705 19.7063 18.7537 19.0909 18.8533C18.4755 18.9529 18.0575 19.5313 18.1574 20.145C18.2573 20.7588 18.8372 21.1756 19.4526 21.076Z" fill="white"/>
<path d="M24.8281 21.0911C25.4516 21.0911 25.957 20.587 25.957 19.9652C25.957 19.3434 25.4516 18.8394 24.8281 18.8394C24.2046 18.8394 23.6992 19.3434 23.6992 19.9652C23.6992 20.587 24.2046 21.0911 24.8281 21.0911Z" fill="white"/>
<path d="M25.7005 24.482L24.6463 23.9976C24.3998 24.4723 24.0272 24.8704 23.5693 25.1483C23.1113 25.4261 22.5855 25.5731 22.0495 25.5731C21.5134 25.5731 20.9877 25.4261 20.5297 25.1483C20.0718 24.8704 19.6992 24.4723 19.4527 23.9976L18.9256 24.2389L18.3984 24.4787C18.4399 24.5712 19.4544 26.7288 22.0453 26.7288C24.6363 26.7288 25.6574 24.5745 25.7005 24.482Z" fill="white"/>
<path d="M34 21.084C34 18.9509 32.4278 17.1702 30.337 16.7496C29.9357 14.8444 28.8955 13.135 27.3899 11.9066C25.8842 10.6783 24.0043 10.0053 22.0639 10C20.1235 9.99478 18.24 10.6576 16.7278 11.8778C15.2156 13.098 14.1662 14.8017 13.7547 16.7047C12.6525 16.8721 11.6543 17.4516 10.9602 18.3269C10.2662 19.2023 9.92777 20.3087 10.0129 21.4241C10.098 22.5394 10.6004 23.5812 11.4192 24.3403C12.238 25.0993 13.3126 25.5195 14.4273 25.5164H14.593V17.8835C15.3965 17.7355 17.4542 17.0971 19.3727 14.3322C20.6699 15.4245 24.159 17.7172 28.7813 15.644C28.9706 16.0895 29.1149 16.5529 29.212 17.0273V25.4815C28.4035 29.7194 25.2226 30.8599 23.8972 31.1542C23.7347 30.6552 23.3976 30.2322 22.9483 29.9635C22.4989 29.6947 21.9677 29.5984 21.4531 29.6924C20.9384 29.7864 20.4751 30.0644 20.149 30.4748C19.8228 30.8852 19.6558 31.4003 19.679 31.9247C19.7021 32.4492 19.9138 32.9474 20.2749 33.3273C20.6359 33.7072 21.1219 33.9429 21.6428 33.9909C22.1637 34.0389 22.6843 33.8959 23.1082 33.5883C23.5322 33.2807 23.8307 32.8295 23.9486 32.318C25.4247 32.0088 29.55 30.6721 30.4181 25.3967C32.4692 24.9495 34 23.1888 34 21.084ZM19.7521 13.1135C19.6801 13.0422 19.5931 12.988 19.4975 12.9549C19.4018 12.9218 19.3 12.9107 19.1996 12.9223C19.0991 12.934 19.0025 12.9681 18.9169 13.0222C18.8313 13.0763 18.7589 13.149 18.705 13.2349C17.3034 15.4445 15.8438 16.2725 14.984 16.5817C15.3601 15.2076 16.1264 13.9729 17.1893 13.0281C18.2523 12.0832 19.5662 11.469 20.9709 11.2602C22.3755 11.0514 23.8104 11.257 25.1007 11.852C26.391 12.4471 27.4809 13.4059 28.2379 14.6115C23.6537 16.6249 20.3717 13.7204 19.7554 13.1135H19.7521Z" fill="white"/>
</svg>
