<svg width="24" height="24" viewBox="0 0 24 24" fill="none" xmlns="http://www.w3.org/2000/svg">
<path fill-rule="evenodd" clip-rule="evenodd" d="M12.2195 2C11.546 2 11 2.54599 11 3.21951C11 3.89303 11.546 4.43903 12.2195 4.43903C12.893 4.43903 13.439 3.89303 13.439 3.21951C13.439 2.54599 12.893 2 12.2195 2ZM12.2195 10.7805C11.546 10.7805 11 11.3265 11 12C11 12.6735 11.546 13.2195 12.2195 13.2195C12.893 13.2195 13.439 12.6735 13.439 12C13.439 11.3265 12.893 10.7805 12.2195 10.7805ZM12.2195 19.561C11.546 19.561 11 20.107 11 20.7805C11 21.454 11.546 22 12.2195 22C12.893 22 13.439 21.454 13.439 20.7805C13.439 20.107 12.893 19.561 12.2195 19.561Z" fill="white"/>
</svg>
